<mxfile host="Electron" agent="Mozilla/5.0 (Macintosh; Intel Mac OS X 10_15_7) AppleWebKit/537.36 (KHTML, like Gecko) draw.io/26.0.16 Chrome/132.0.6834.196 Electron/34.2.0 Safari/537.36" version="26.0.16">
  <diagram name="Page-1" id="SYUtEcty2NEtncyXz6a1">
    <mxGraphModel dx="1491" dy="1174" grid="1" gridSize="10" guides="1" tooltips="1" connect="1" arrows="1" fold="1" page="1" pageScale="1" pageWidth="850" pageHeight="1100" math="1" shadow="0">
      <root>
        <mxCell id="0" />
        <mxCell id="1" parent="0" />
        <mxCell id="SzgyhsBo_j-j_yWk0F64-17" value="" style="strokeWidth=1;html=1;shape=mxgraph.flowchart.annotation_1;align=left;pointerEvents=1;rotation=90;" parent="1" vertex="1">
          <mxGeometry x="348.5" y="-130" width="11" height="1010" as="geometry" />
        </mxCell>
        <mxCell id="SzgyhsBo_j-j_yWk0F64-18" value="&lt;span style=&quot;color: rgb(51, 51, 51); font-family: Helvetica; font-size: 11px; font-style: normal; font-variant-ligatures: normal; font-variant-caps: normal; font-weight: 400; letter-spacing: normal; orphans: 2; text-align: center; text-indent: 0px; text-transform: none; widows: 2; word-spacing: 0px; -webkit-text-stroke-width: 0px; white-space: normal; background-color: rgb(251, 251, 251); text-decoration-thickness: initial; text-decoration-style: initial; text-decoration-color: initial; display: inline !important; float: none;&quot;&gt;$$ 01.02.2021 $$&lt;/span&gt;" style="text;whiteSpace=wrap;html=1;fontFamily=Helvetica;fontSize=12;fontColor=default;" parent="1" vertex="1">
          <mxGeometry x="-154" y="335" width="60" height="20" as="geometry" />
        </mxCell>
        <mxCell id="SzgyhsBo_j-j_yWk0F64-20" value="&lt;span style=&quot;color: rgb(51, 51, 51); font-family: Helvetica; font-size: 11px; font-style: normal; font-variant-ligatures: normal; font-variant-caps: normal; font-weight: 400; letter-spacing: normal; orphans: 2; text-align: center; text-indent: 0px; text-transform: none; widows: 2; word-spacing: 0px; -webkit-text-stroke-width: 0px; white-space: normal; background-color: rgb(251, 251, 251); text-decoration-thickness: initial; text-decoration-style: initial; text-decoration-color: initial; display: inline !important; float: none;&quot;&gt;$$ 01.01.2025 $$&lt;/span&gt;" style="text;whiteSpace=wrap;html=1;fontFamily=Helvetica;fontSize=12;fontColor=default;" parent="1" vertex="1">
          <mxGeometry x="800" y="330" width="60" height="20" as="geometry" />
        </mxCell>
        <mxCell id="SzgyhsBo_j-j_yWk0F64-1" value="$$ T_{train}^{(1)} = [01.02.2021, 01.01.2024] $$" style="rounded=0;whiteSpace=wrap;html=1;fontSize=11;fillColor=#E6E6E6;strokeColor=default;fontColor=#333333;strokeWidth=1;" parent="1" vertex="1">
          <mxGeometry x="-136" y="389" width="245" height="34" as="geometry" />
        </mxCell>
        <mxCell id="SzgyhsBo_j-j_yWk0F64-3" value="$$T_{trade}^{(1)} = [02.01.2024, 01.02.2024]$$" style="rounded=0;whiteSpace=wrap;html=1;fontSize=11;fillColor=none;strokeColor=default;strokeWidth=1;" parent="1" vertex="1">
          <mxGeometry x="109" y="389" width="245" height="34" as="geometry" />
        </mxCell>
        <mxCell id="SzgyhsBo_j-j_yWk0F64-5" value="$$T_{trade}^{(2)} = [02.02.2024, 01.03.2024]$$" style="rounded=0;whiteSpace=wrap;html=1;fontSize=11;fillColor=none;strokeColor=default;strokeWidth=1;" parent="1" vertex="1">
          <mxGeometry x="354" y="435" width="245" height="34" as="geometry" />
        </mxCell>
        <mxCell id="SzgyhsBo_j-j_yWk0F64-6" value="$$ T_{train}^{(2)} = [01.03.2021, 01.02.2024] $$" style="rounded=0;whiteSpace=wrap;html=1;fontSize=11;fillColor=#E6E6E6;strokeColor=default;fontColor=#333333;strokeWidth=1;" parent="1" vertex="1">
          <mxGeometry x="109" y="435" width="245" height="34" as="geometry" />
        </mxCell>
        <mxCell id="SzgyhsBo_j-j_yWk0F64-7" value="$$ ... $$" style="rounded=0;whiteSpace=wrap;html=1;fontSize=11;fillColor=none;strokeColor=default;strokeWidth=1;" parent="1" vertex="1">
          <mxGeometry x="599" y="479" width="245" height="34" as="geometry" />
        </mxCell>
        <mxCell id="SzgyhsBo_j-j_yWk0F64-8" value="$$ ... $$" style="rounded=0;whiteSpace=wrap;html=1;fontSize=11;fillColor=#E6E6E6;strokeColor=default;fontColor=#333333;strokeWidth=1;" parent="1" vertex="1">
          <mxGeometry x="354" y="479" width="245" height="34" as="geometry" />
        </mxCell>
        <mxCell id="SzgyhsBo_j-j_yWk0F64-22" value="$$ \text{for each window}\ i \in \{1, 2, ..., 12\}$$" style="text;html=1;align=center;verticalAlign=middle;whiteSpace=wrap;rounded=0;fontFamily=Georgia;fontStyle=2" parent="1" vertex="1">
          <mxGeometry x="352" y="513" width="492" height="30" as="geometry" />
        </mxCell>
      </root>
    </mxGraphModel>
  </diagram>
</mxfile>
